<?xml version="1.0" encoding="utf-8"?>
<!-- Generator: Adobe Illustrator 23.0.1, SVG Export Plug-In . SVG Version: 6.00 Build 0)  -->
<svg version="1.1" id="Camada_1" xmlns="http://www.w3.org/2000/svg" xmlns:xlink="http://www.w3.org/1999/xlink" x="0px" y="0px"
	 viewBox="0 0 595.28 841.89" style="enable-background:new 0 0 595.28 841.89;" xml:space="preserve">
<style type="text/css">
	.st0{fill:#060708;}
</style>
<path class="st0" d="M236.24,156.21l-0.74-2.74l-58.02,15.68l0.74,2.74l4.43-1.2v27.4h49.04v-40.66L236.24,156.21z M212.79,195.26
	h-11.25v-18.24h11.25V195.26z M228.86,195.26h-14.65v-19.66h-14.08v19.66h-14.65v-25.33l43.38-11.72V195.26z"/>
<g>
	<path class="st0" d="M239.79,227.08l-0.64-2.76L172,240l0.64,2.76l5.46-1.27v27.47h56.31v-40.62L239.79,227.08z M222.87,266.12
		h-13.24v-18.24h13.24V266.12z M231.58,266.12h-7.29v-19.65h-16.07v19.65h-27.29v-25.29L231.58,229V266.12z"/>
	<path class="st0" d="M200.29,259.21v-12.75h-12.75v12.75H200.29z M188.96,247.88h9.92v9.92h-9.92V247.88z"/>
</g>
<path class="st0" d="M304.92,209.98l-0.63-2.76l-56.68,12.94l0.63,2.76l4.34-0.99v47.03h47.98v-57.98L304.92,209.98z M278.77,239.47
	h-23.35v-10.15h23.35V239.47z M255.42,266.12V242.3h28.13c0,0.02-0.01,0.04-0.01,0.07v19.23c0,0.39,0.32,0.71,0.71,0.71
	c0.39,0,0.71-0.32,0.71-0.71v-2.01h6.58v2.01c0,0.39,0.32,0.71,0.71,0.71c0.39,0,0.71-0.32,0.71-0.71v-19.23
	c0-0.02-0.01-0.05-0.01-0.07h4.79v23.82H255.42z M291.54,252.17h-6.58v-4.58h6.58V252.17z M284.96,253.59h6.58v4.58h-6.58V253.59z
	 M291.54,242.37v3.8h-6.58v-3.8c0-0.02-0.01-0.05-0.01-0.07h6.61C291.55,242.33,291.54,242.35,291.54,242.37z M297.73,239.47h-17.54
	v-10.22c0-0.01-0.01-0.03-0.01-0.04c0.2-0.12,0.35-0.34,0.35-0.59c0-0.39-0.32-0.71-0.71-0.71h-24.4v-6.62l42.31-9.66V239.47z"/>
<path class="st0" d="M322.12,233.34v35.61h49.04v-35.61H322.12z M353.26,266.12h-13.24v-16.82h13.24V266.12z M368.33,266.12h-13.65
	v-18.24h-16.07v18.24h-13.65v-29.94h43.38V266.12z"/>
<path class="st0" d="M388.48,233.34v35.61h57.08v-35.61H388.48z M442.73,236.17v21.36h-10.29v-9.67h-15h-1.07h-15v9.67h-10.06
	v-21.36H442.73z M402.79,266.12v-7.16h13.24v7.16H402.79z M416.02,257.54h-13.24v-8.25h13.24V257.54z M417.79,266.12v-7.16h13.24
	v7.16H417.79z M417.79,257.54v-8.25h13.24v8.25H417.79z M391.31,258.95h10.06v7.16h-10.06V258.95z M432.44,266.12v-7.16h10.29v7.16
	H432.44z"/>
<path class="st0" d="M327.03,139.12l-0.63-2.76l-56.68,12.94l0.63,2.76l4.34-0.99v19.77v2.84v24.42h47.98v-24.42v-2.84v-30.73
	L327.03,139.12z M277.53,164.57h14.26v6.27h-14.26V164.57z M304.16,163.15H293.2v-6.98h10.95V163.15z M304.16,164.57v6.27H293.2
	v-6.27H304.16z M304.16,195.26H293.2v-14.68h10.95V195.26z M319.84,195.26h-14.26v-16.09h-13.79v16.09h-14.26v-21.58h42.31V195.26z
	 M305.57,170.84v-6.27h14.26v6.27H305.57z M319.84,163.15h-14.26v-8.4h-13.79v8.4h-14.26v-12.73l42.31-9.66V163.15z"/>
<path class="st0" d="M410.85,144.31l-41.29-9.43l-0.63,2.76l2.88,0.66v21.69v2.84v14.95v2.83v17.48h35.72v-17.48v-2.83v-14.95v-2.84
	v-13.54l2.69,0.61L410.85,144.31z M374.65,155.62h9.81v4.37h-9.81V155.62z M393.47,154.2h-7.59v-4.33h7.59V154.2z M393.47,155.62
	v4.37h-7.59v-4.37H393.47z M374.65,173.62h9.81v4.16h-9.81V173.62z M393.47,172.2h-7.59v-4.54h7.59V172.2z M393.47,173.62v4.16
	h-7.59v-4.16H393.47z M393.47,195.26h-7.59v-10.42h7.59V195.26z M404.7,195.26h-9.81v-11.84h-10.43v11.84h-9.81v-14.65h30.05V195.26
	z M394.88,177.78v-4.16h9.81v4.16H394.88z M404.7,172.2h-9.81v-5.96h-10.43v5.96h-9.81v-9.38h30.05V172.2z M394.88,159.99v-4.37
	h9.81v4.37H394.88z M404.7,154.2h-9.81v-5.74h-10.43v5.74h-9.81v-15.26l30.05,6.86V154.2z"/>
</svg>
